<?xml version="1.0" encoding="utf-8"?>
<!-- Svg Vector Icons : http://www.onlinewebfonts.com/icon -->
<!DOCTYPE svg PUBLIC "-//W3C//DTD SVG 1.1//EN" "http://www.w3.org/Graphics/SVG/1.1/DTD/svg11.dtd">
<svg version="1.1" xmlns="http://www.w3.org/2000/svg" xmlns:xlink="http://www.w3.org/1999/xlink" x="0px" y="0px" viewBox="0 0 1000 1000" enable-background="new 0 0 1000 1000" xml:space="preserve">
<metadata> Svg Vector Icons : http://www.onlinewebfonts.com/icon </metadata>
<g><path d="M630.7,434.7v20.9c9.7,5.7,16.3,16.1,16.3,28.1c0,18-14.6,32.7-32.7,32.7s-32.7-14.6-32.7-32.7c0-12.1,6.6-22.5,16.3-28.1v-20.9H402v20.9c9.7,5.7,16.3,16.1,16.3,28.1c0,18-14.6,32.7-32.7,32.7S353,501.7,353,483.7c0-12.1,6.6-22.5,16.3-28.1v-20.9H304L271.3,745h457.3L696,434.7H630.7z M500,10C229.4,10,10,229.4,10,500c0,270.6,219.4,490,490,490c270.6,0,490-219.4,490-490C990,229.4,770.6,10,500,10z M238.7,777.7L271.3,402h98v-49c0-72.2,58.5-130.7,130.7-130.7c72.2,0,130.7,58.5,130.7,130.7h0.4l-0.4,49h98l32.7,375.7L238.7,777.7z M599.2,353H598c0-54.1-43.9-98-98-98s-98,43.9-98,98v49h196L599.2,353z"/></g>
</svg>